<svg width="44" height="41" viewBox="0 0 44 41" fill="none" xmlns="http://www.w3.org/2000/svg">
<path d="M21.9741 0.215576C10.355 0.215576 0.890625 9.28153 0.890625 20.4115C0.890625 31.5415 10.355 40.6075 21.9741 40.6075C33.5932 40.6075 43.0575 31.5415 43.0575 20.4115C43.0575 9.28153 33.5932 0.215576 21.9741 0.215576ZM21.9741 4.25477C31.3143 4.25477 38.8408 11.4645 38.8408 20.4115C38.8408 28.5191 32.6535 35.1809 24.5436 36.3632V25.2278H29.4521L30.2222 20.451H24.5436V17.8397C24.5436 15.8544 25.2188 14.0924 27.1585 14.0924H30.2716V9.92304C29.7234 9.85236 28.5665 9.6982 26.3802 9.6982C21.8135 9.6982 19.1369 12.0086 19.1369 17.2717V20.451H14.4425V25.2278H19.1369V36.3237C11.1589 35.0351 5.10732 28.4298 5.10732 20.4115C5.10732 11.4645 12.6339 4.25477 21.9741 4.25477Z" fill="white"/>
</svg>
