<svg width="39" height="37" viewBox="0 0 39 37" fill="none" xmlns="http://www.w3.org/2000/svg">
<path d="M11.123 0.235107C5.31032 0.235107 0.581299 4.76506 0.581299 10.3331V26.4898C0.581299 32.0579 5.31032 36.5878 11.123 36.5878H27.9898C33.8025 36.5878 38.5315 32.0579 38.5315 26.4898V10.3331C38.5315 4.76506 33.8025 0.235107 27.9898 0.235107H11.123ZM11.123 4.2743H27.9898C31.477 4.2743 34.3148 6.99267 34.3148 10.3331V26.4898C34.3148 29.8303 31.477 32.5486 27.9898 32.5486H11.123C7.63582 32.5486 4.79799 29.8303 4.79799 26.4898V10.3331C4.79799 6.99267 7.63582 4.2743 11.123 4.2743ZM30.0981 6.29389C29.539 6.29389 29.0027 6.50667 28.6073 6.88542C28.2119 7.26417 27.9898 7.77786 27.9898 8.31349C27.9898 8.84912 28.2119 9.36281 28.6073 9.74156C29.0027 10.1203 29.539 10.3331 30.0981 10.3331C30.6573 10.3331 31.1936 10.1203 31.589 9.74156C31.9844 9.36281 32.2065 8.84912 32.2065 8.31349C32.2065 7.77786 31.9844 7.26417 31.589 6.88542C31.1936 6.50667 30.6573 6.29389 30.0981 6.29389ZM19.5564 8.31349C13.7437 8.31349 9.01468 12.8434 9.01468 18.4115C9.01468 23.9795 13.7437 28.5094 19.5564 28.5094C25.3691 28.5094 30.0981 23.9795 30.0981 18.4115C30.0981 12.8434 25.3691 8.31349 19.5564 8.31349ZM19.5564 12.3527C23.0436 12.3527 25.8814 15.0711 25.8814 18.4115C25.8814 21.7519 23.0436 24.4702 19.5564 24.4702C16.0692 24.4702 13.2314 21.7519 13.2314 18.4115C13.2314 15.0711 16.0692 12.3527 19.5564 12.3527Z" fill="white"/>
</svg>
