<svg width="43" height="41" viewBox="0 0 43 41" fill="none" xmlns="http://www.w3.org/2000/svg">
<path d="M21.4159 0.215576C9.80735 0.215576 0.357252 9.26008 0.353036 20.38C0.350927 23.9345 1.32284 27.4045 3.16554 30.4622L0.307739 40.6075L11.3395 38.1106C14.4156 39.7182 17.8784 40.5621 21.4035 40.5641H21.4118C33.0182 40.5641 42.4642 31.5176 42.4705 20.3997C42.4747 15.0094 40.2865 9.94141 36.3102 6.12841C32.3339 2.31744 27.0494 0.217596 21.4159 0.215576ZM21.4118 4.25477C25.9152 4.25679 30.1474 5.9387 33.3289 8.98425C36.5104 12.0338 38.2581 16.0859 38.2538 20.3957C38.2496 29.29 30.697 36.5249 21.4077 36.5249C18.5972 36.5229 15.8134 35.8469 13.3614 34.5645L11.9407 33.8229L10.3718 34.1779L6.22099 35.1167L7.23398 31.5114L7.69107 29.8942L6.81808 28.4426C5.34645 26.0029 4.56762 23.2135 4.56973 20.38C4.57394 11.4897 12.1287 4.25477 21.4118 4.25477ZM13.9626 11.0709C13.6105 11.0709 13.0412 11.1971 12.5584 11.702C12.0756 12.2049 10.7136 13.4229 10.7136 15.9029C10.7136 18.383 12.5996 20.7803 12.8631 21.1176C13.1245 21.4528 16.5035 26.703 21.8524 28.7226C26.2968 30.4009 27.1995 30.0697 28.1651 29.9849C29.1307 29.9021 31.2803 28.768 31.7188 27.5906C32.1573 26.4131 32.1583 25.4003 32.0276 25.1923C31.8969 24.9822 31.5458 24.857 31.0188 24.6046C30.4938 24.3521 27.9067 23.1352 27.4239 22.9676C26.9411 22.7999 26.5879 22.7151 26.2379 23.22C25.8879 23.7249 24.8821 24.857 24.5743 25.1923C24.2665 25.5296 23.9607 25.5749 23.4337 25.3225C22.9066 25.068 21.2119 24.5343 19.2005 22.8177C17.6361 21.4827 16.5805 19.8356 16.2727 19.3307C15.967 18.8278 16.2439 18.5516 16.5074 18.3012C16.7435 18.075 17.0304 17.7125 17.2939 17.4176C17.5554 17.1228 17.646 16.9127 17.821 16.5774C17.996 16.2422 17.9064 15.9463 17.7757 15.6939C17.645 15.4414 16.6213 12.9522 16.1533 11.9545C15.759 11.1163 15.3426 11.0969 14.9673 11.0827C14.6616 11.0706 14.3126 11.0709 13.9626 11.0709Z" fill="white"/>
</svg>
